# xmcd
#
# Track frame offsets:
#	150
#	24331
#	44856
#	67498
#	80380
#	95676
#	120326
#	135696
#	157472
#	176031
#	205877
#	227285
#	246951
#	266620
#	282373
#	307113
#
# Disc length: 4438 seconds
#
# Revision: 0
# Processed by: cddbd v1.5.2PL0 Copyright (c) Steve Scherf et al.
# Submitted via: audiograbber 1.83.01
#
DISCID=f2115410
DTITLE=Phil Collins - ...Hits
DYEAR=1998
DGENRE=Pop
TTITLE0=Phil Collins - Another Day In Paradise
TTITLE1=Phil Collins - True Colors
TTITLE2=Phil Collins and Philip Bailey - Easy Lover
TTITLE3=Phil Collins - You Can't Hurry Love
TTITLE4=Phil Collins - Two Hearts
TTITLE5=Phil Collins - I Wish It Would Rain Down
TTITLE6=Phil Collins - Against All Odds (Take A Look At Me Now)
TTITLE7=Phil Collins - Something Happened On The Way To Heaven
TTITLE8=Phil Collins and Marilyn Martin - Separate Lives (Love Theme From White N
TTITLE8=ights)
TTITLE9=Phil Collins - Both Sides Of The Story
TTITLE10=Phil Collins - One More Night
TTITLE11=Phil Collins - Sussudio
TTITLE12=Phil Collins - Dance Into The Light
TTITLE13=Phil Collins - A Groovy Kind Of Love
TTITLE14=Phil Collins - In The Air Tonight
TTITLE15=Phil Collins - Take Me Home
EXTD=
EXTT0=
EXTT1=
EXTT2=
EXTT3=
EXTT4=
EXTT5=
EXTT6=
EXTT7=
EXTT8=
EXTT9=
EXTT10=
EXTT11=
EXTT12=
EXTT13=
EXTT14=
EXTT15=
PLAYORDER=
